<svg width="73" height="32" viewBox="0 0 73 32" fill="none" xmlns="http://www.w3.org/2000/svg">
<path d="M0.535156 31V9.85938H0.878906L6.59375 19.0547V31H0.535156ZM0.535156 4.875V0.921875H5.47656L19.6562 23.7812V31H16.7773L0.535156 4.875ZM13.5977 9.60156V0.921875H19.6562V18.7969H19.3125L13.5977 9.60156Z" fill="url(#paint0_linear_232_34)"/>
<path d="M22.75 19.9141V17.1641L37.9609 9.51562V15.1016L30.3984 18.4531L37.9609 22.1484V27.6055L22.75 19.9141Z" fill="url(#paint1_linear_232_34)"/>
<path d="M41.3984 31.9883L48.918 0.234375H54.332L46.8555 31.9883H41.3984Z" fill="url(#paint2_linear_232_34)"/>
<path d="M57.7695 27.6055V22.1484L65.332 18.4531L57.7695 15.1016V9.51562L72.9805 17.1641V19.9141L57.7695 27.6055Z" fill="url(#paint3_linear_232_34)"/>
<defs>
<linearGradient id="paint0_linear_232_34" x1="0.535156" y1="16.1113" x2="72.9805" y2="16.1113" gradientUnits="userSpaceOnUse">
<stop offset="0.123656" stop-color="#AA65F0"/>
<stop offset="0.403226" stop-color="#BF8CF4"/>
<stop offset="0.607527" stop-color="#D5B2F8"/>
<stop offset="0.747312" stop-color="white" stop-opacity="0.8"/>
</linearGradient>
<linearGradient id="paint1_linear_232_34" x1="0.535156" y1="16.1113" x2="72.9805" y2="16.1113" gradientUnits="userSpaceOnUse">
<stop offset="0.123656" stop-color="#AA65F0"/>
<stop offset="0.403226" stop-color="#BF8CF4"/>
<stop offset="0.607527" stop-color="#D5B2F8"/>
<stop offset="0.747312" stop-color="white" stop-opacity="0.8"/>
</linearGradient>
<linearGradient id="paint2_linear_232_34" x1="0.535156" y1="16.1113" x2="72.9805" y2="16.1113" gradientUnits="userSpaceOnUse">
<stop offset="0.123656" stop-color="#AA65F0"/>
<stop offset="0.403226" stop-color="#BF8CF4"/>
<stop offset="0.607527" stop-color="#D5B2F8"/>
<stop offset="0.747312" stop-color="white" stop-opacity="0.8"/>
</linearGradient>
<linearGradient id="paint3_linear_232_34" x1="0.535156" y1="16.1113" x2="72.9805" y2="16.1113" gradientUnits="userSpaceOnUse">
<stop offset="0.123656" stop-color="#AA65F0"/>
<stop offset="0.403226" stop-color="#BF8CF4"/>
<stop offset="0.607527" stop-color="#D5B2F8"/>
<stop offset="0.747312" stop-color="white" stop-opacity="0.8"/>
</linearGradient>
</defs>
</svg>
